# xmcd
#
# Track frame offsets:
#	225
#	7238
#	40010
#	73095
#	118005
#	163243
#	198473
#
# Disc length: 2916 seconds
#
# Revision: 5
# Processed by: cddbd v1.5.2PL0 Copyright (c) Steve Scherf et al.
# Submitted via: audiograbber 1.83.01
#
DISCID=630b6107
DTITLE=U.K. - Live In Boston
DYEAR=2007
DGENRE=Rock
TTITLE0=Alaska
TTITLE1=Time To Kill
TTITLE2=The Only Thing She Needs
TTITLE3=Carrying No Cross
TTITLE4=Thirty Years
TTITLE5=Presto Vivace - In The Dead Of Night
TTITLE6=Caesar's Palace Blues
EXTD=
EXTT0=
EXTT1=
EXTT2=
EXTT3=
EXTT4=
EXTT5=
EXTT6=
PLAYORDER=
